Coordinates
version=1
nRows=12
nColumns=23
inDegrees=yes

Units are S.I. units (second, meters, Newtons, ...)
If the header above contains a line with 'inDegrees', this indicates whether rotational values are in degrees (yes) or radians (no).

endheader
time	pelvis_tilt	pelvis_list	pelvis_rotation	pelvis_tx	pelvis_ty	pelvis_tz	hip_flexion_r	hip_adduction_r	hip_rotation_r	knee_angle_r	knee_angle_r_beta	ankle_angle_r	subtalar_angle_r	mtp_angle_r	hip_flexion_l	hip_adduction_l	hip_rotation_l	knee_angle_l	knee_angle_l_beta	ankle_angle_l	subtalar_angle_l	mtp_angle_l
     22.50000000	     -9.92848060	      3.42702420	      1.64003401	      2.26920439	      0.97090011	      0.97152168	     -5.50451631	      0.32180694	     -0.85667521	     11.53043448	      0.20124405	     -1.26894588	     -7.93142734	      0.00000000	     34.07642226	      4.36177645	      1.95709668	     54.55388180	      0.95214486	      5.86123636	    -12.96646916	      0.00000000
     22.50666667	    -10.36112611	      3.81060310	      2.03405638	      2.27025958	      0.97401427	      0.97083872	     -6.39332093	     -0.06712960	     -1.59312450	     10.55125637	      0.18415416	     -3.54147910	     -7.91160802	      0.00000000	     34.33914273	      4.86907630	      1.74075901	     50.91030349	      0.88855242	      5.61265130	    -11.89900239	      0.00000000
     22.51333333	    -11.00263339	      4.05521751	      2.42581813	      2.27124190	      0.97666094	      0.97011346	     -6.82389620	     -0.34214129	     -2.47103977	      9.99814507	      0.17450055	     -5.64428072	     -7.72687790	      0.00000000	     34.74380832	      5.23635000	      1.48729809	     47.16695393	      0.82321864	      5.31762044	    -10.64774930	      0.00000000
     22.52000000	    -11.23720472	      4.28361779	      2.74158369	      2.27253476	      0.97956292	      0.96948958	     -7.72989221	     -0.54830429	     -3.08298826	      9.35136229	      0.16321206	     -7.78904692	     -7.79830071	      0.00000000	     34.54208648	      5.48903337	      0.97583663	     43.24314775	      0.75473531	      4.87524973	     -9.10647005	      0.00000000
     22.52666667	    -11.65638236	      4.36096237	      3.04473809	      2.27367770	      0.98193653	      0.96879609	     -8.16997617	     -0.63973366	     -3.78237995	      9.19730876	      0.16052332	     -9.67207226	     -7.83618520	      0.00000000	     34.48804258	      5.58879612	      0.35014349	     39.30093614	      0.68593073	      4.33524463	     -7.39270906	      0.00000000
     22.53333333	    -11.98339960	      4.38877614	      3.27175584	      2.27489098	      0.98407137	      0.96811579	     -8.57182736	     -0.69387809	     -4.36223357	      9.29733862	      0.16226917	    -11.35970837	     -7.90376603	      0.00000000	     34.25573801	      5.59048567	     -0.53303841	     35.36028277	      0.61715336	      3.76510382	     -5.49959788	      0.00000000
     22.54000000	    -12.37621240	      4.31169911	      3.50762070	      2.27601405	      0.98573008	      0.96733666	     -8.69039252	     -0.67427222	     -4.96932473	      9.81307610	      0.17127049	    -12.77889824	     -8.04238259	      0.00000000	     34.05738526	      5.56889258	     -1.41070475	     31.49646949	      0.54971710	      3.11460676	     -3.65544434	      0.00000000
     22.54666667	    -12.40302415	      4.25632017	      3.55316571	      2.27725541	      0.98743833	      0.96667449	     -9.09443383	     -0.68379080	     -5.25781864	     10.53586873	      0.18388560	    -13.92331004	     -8.17024680	      0.00000000	     33.43838997	      5.41118886	     -2.89498313	     27.80378174	      0.48526754	      2.61029188	     -1.20977959	      0.00000000
     22.55333333	    -12.66211960	      4.12219588	      3.66487379	      2.27825966	      0.98842087	      0.96581247	     -9.00084700	     -0.66109096	     -5.58693928	     11.75747569	      0.20520666	    -14.80878968	     -8.42829916	      0.00000000	     33.04320545	      5.43934307	     -3.82266435	     24.23722319	      0.42301935	      1.91033696	      0.40780597	      0.00000000
     22.56000000	    -12.58056563	      4.01022082	      3.66739199	      2.27928121	      0.98933664	      0.96501999	     -9.12739975	     -0.68099905	     -5.77178526	     13.28815837	      0.23192212	    -15.19886699	     -8.62292995	      0.00000000	     32.28053982	      5.42818536	     -5.04238974	     20.91941121	      0.36511260	      1.04582078	      1.95664168	      0.00000000
     22.56666667	    -12.44633092	      3.89936965	      3.63627131	      2.28018726	      0.98984317	      0.96412721	     -9.13637428	     -0.73146307	     -5.82317984	     15.17654352	      0.26488065	    -15.44553585	     -8.72848271	      0.00000000	     31.50534572	      5.51096465	     -6.03728186	     17.96058442	      0.31347133	      0.32152419	      3.22990785	      0.00000000
     22.57333333	    -12.17918745	      3.84840149	      3.60426347	      2.28105130	      0.98999256	      0.96332200	     -9.11396277	     -0.88406590	     -6.00294731	     17.44949606	      0.30455116	    -15.25717714	     -8.41972700	      0.00000000	     30.58892429	      5.71099178	     -6.79086948	     15.29571787	      0.26696064	     -0.55883848	      3.93959307	      0.00000000
